
<svg version="1.1" xmlns="http://www.w3.org/2000/svg" width="500" height="500">
<path d="M0 0 C165 0 330 0 500 0 C500 165 500 330 500 500 C335 500 170 500 0 500 C0 335 0 170 0 0 Z " fill="#FEFEFE" transform="translate(0,0)"/>
<path d="M0 0 C11.20873228 4.83884564 20.59094705 3.62750724 31.83203125 -0.6875 C33.614085 -1.4258108 35.38964238 -2.18235548 37.13671875 -3 C44.64324034 -6.38689044 53.5007164 -6.17850851 61.35546875 -4.12109375 C71.95078058 -0.05217172 77.66463782 6.31650897 84.0703125 15.4140625 C90.51129902 24.04550598 98.46385884 27.57620718 108.90795898 29.13696289 C109.74270752 29.25676514 110.57745605 29.37656738 111.4375 29.5 C122.44135692 31.08408918 131.3693934 33.37053717 139 42 C143.9817062 48.98545914 147.09507183 55.52049306 147.375 64.1875 C148.0757479 74.95688878 151.63327111 84.20762638 159.75 91.5 C162.45253454 93.79564737 165.23089423 95.89166661 168.125 97.9375 C172.33404229 101.05714311 175.22558529 104.57571146 178 109 C178.41507812 109.64324219 178.83015625 110.28648437 179.2578125 110.94921875 C183.07117057 117.94926416 183.14021766 126.24845248 182 134 C180.73310055 138.23105733 178.99588647 142.06762844 177 146 C173.11465312 153.86175658 172.59577429 162.4767122 174.76171875 170.99609375 C176.03971569 174.55731051 177.50039163 177.9737774 179.15625 181.375 C183.00309799 189.72815565 183.46601534 198.44081793 181.1171875 207.34765625 C177.47833339 216.87856222 172.08950762 222.57768753 163.9375 228.5 C155.75521851 234.47582356 150.65087397 241.12419503 148 251 C147.61997698 253.67101893 147.2828957 256.31950864 147 259 C145.72255026 270.8140089 142.23070251 279.12387865 133 287 C126.58568429 290.73383398 120.40392188 293.00103694 113 293.3125 C103.02546954 294.04477921 94.29960688 296.98054861 87 304 C84.52232452 306.89689172 82.27129196 309.94049713 80 313 C74.49555701 320.01250956 68.60160367 325.20145008 60 328 C48.2491729 329.35494231 39.12514908 327.66690542 28.4765625 322.62890625 C20.02015497 318.66674677 11.27366451 319.14855903 2.5 322 C-0.03327632 322.95860112 -0.03327632 322.95860112 -2.4375 324.3125 C-11.23011943 329.03049091 -21.3811329 330.13976693 -31.06542969 327.41992188 C-41.23390847 323.69739648 -47.26678357 317.43592143 -52.8125 308.4375 C-57.33198948 301.477967 -64.4871943 296.82703474 -72.3984375 294.46484375 C-75.70953389 293.87322142 -78.95171459 293.80043882 -82.3125 293.6875 C-90.04588361 293.30704237 -95.50365986 291.10931283 -102 287 C-102.61488281 286.6184375 -103.22976562 286.236875 -103.86328125 285.84375 C-110.12814811 281.31102979 -113.98242455 273.27437755 -116 266 C-116.18492871 263.94200762 -116.30829765 261.87770751 -116.375 259.8125 C-117.04156561 249.88180221 -120.2879925 240.5097461 -127 233 C-129.68518257 230.78077559 -132.43180775 228.77592582 -135.31640625 226.82421875 C-139.95804681 223.66898419 -143.36652703 220.9708417 -146.1875 216.0625 C-146.67605469 215.22847656 -147.16460937 214.39445313 -147.66796875 213.53515625 C-150.49478322 208.15509 -151.35792929 203.8328489 -151.3125 197.75 C-151.30831055 196.99001709 -151.30412109 196.23003418 -151.29980469 195.44702148 C-151.18595573 189.79393647 -150.33675551 185.17424435 -148 180 C-147.28811517 178.20974149 -146.57986551 176.41803379 -145.875 174.625 C-145.37613281 173.40683594 -145.37613281 173.40683594 -144.8671875 172.1640625 C-141.45552705 163.65027921 -142.55813531 155.96425495 -145.84375 147.5859375 C-146.92431296 145.0553221 -146.92431296 145.0553221 -148.15625 142.9765625 C-152.4557428 135.2067648 -152.25837847 125.6137677 -151 117 C-147.88060861 107.41038711 -142.54639994 100.77772096 -134.1875 95.3125 C-125.80982016 89.55494197 -120.18675329 82.9704008 -117.53125 72.96484375 C-116.98026809 69.88987851 -116.6761466 66.85252645 -116.39501953 63.74389648 C-115.63614543 55.53823543 -114.36234323 49.57599135 -109 43 C-108.47277344 42.34644531 -107.94554687 41.69289062 -107.40234375 41.01953125 C-100.13378088 32.96053364 -92.06077142 30.81614787 -81.625 29.5625 C-70.15481294 28.16435767 -60.92948884 25.46802805 -53.50390625 16.07421875 C-52.50984058 14.70318272 -51.51761863 13.33080781 -50.52734375 11.95703125 C-37.54096034 -5.94686268 -19.76927874 -9.75400537 0 0 Z " fill="#FEE266" transform="translate(225,68)"/>
</svg>
